<?xml version="1.0" standalone="no"?>
<!DOCTYPE svg PUBLIC "-//W3C//DTD SVG 20010904//EN"
 "http://www.w3.org/TR/2001/REC-SVG-20010904/DTD/svg10.dtd">
<svg version="1.0" xmlns="http://www.w3.org/2000/svg"
 width="900.000000pt" height="900.000000pt" viewBox="0 0 900.000000 900.000000"
 preserveAspectRatio="xMidYMid meet">

<g transform="translate(0.000000,900.000000) scale(0.100000,-0.100000)"
fill="#000000" stroke="none">
<path d="M3640 5531 c0 -6 4 -13 10 -16 6 -3 7 1 4 9 -7 18 -14 21 -14 7z"/>
<path d="M3626 5493 c-6 -14 -5 -15 5 -6 7 7 10 15 7 18 -3 3 -9 -2 -12 -12z"/>
<path d="M3595 5431 c-9 -22 -14 -45 -10 -52 6 -8 4 -10 -5 -4 -10 6 -12 4 -7
-9 4 -9 3 -15 -2 -12 -4 3 -28 -36 -51 -87 -23 -50 -84 -182 -135 -292 -172
-370 -626 -1357 -815 -1770 -187 -409 -643 -1405 -706 -1543 l-33 -72 277 2
c152 1 252 4 222 8 -30 4 -45 7 -32 8 13 1 20 7 17 12 -3 6 3 10 13 10 16 0
19 5 15 21 -4 14 0 25 11 31 9 5 16 13 16 19 0 5 14 23 31 40 16 16 37 45 45
64 8 19 18 35 23 35 12 0 61 47 61 59 0 6 10 16 23 22 12 7 27 17 32 24 32 36
224 175 243 175 6 0 12 7 16 15 3 8 14 15 23 15 10 0 34 17 53 37 28 29 36 33
38 20 3 -15 8 -14 34 8 17 14 37 24 44 21 8 -3 14 -1 14 4 0 5 26 17 58 26 31
9 67 23 79 31 16 11 23 11 29 2 5 -9 10 -8 19 5 8 10 22 15 36 12 13 -2 32 3
42 12 11 10 17 11 17 3 0 -7 5 -9 13 -4 12 8 17 9 38 12 5 0 8 5 5 9 -3 4 13
19 35 32 21 14 39 28 39 32 0 4 14 17 31 29 22 15 33 18 38 10 4 -6 21 20 41
62 18 39 55 119 83 177 201 429 767 1663 948 2068 38 85 66 159 63 164 -4 6
-3 8 3 5 6 -4 15 5 22 19 10 22 9 28 -6 40 -24 18 -44 18 -37 0 3 -8 0 -17 -7
-22 -7 -4 -10 -3 -6 3 9 15 -16 23 -74 23 -32 0 -48 4 -46 12 2 14 -64 36
-110 37 -19 1 -42 10 -53 21 -24 24 -30 25 -30 5 0 -22 -16 -18 -34 6 -11 16
-25 21 -55 21 -22 0 -43 3 -46 9 -4 5 -1 9 6 9 31 0 -7 14 -54 20 -34 5 -55 3
-59 -4 -5 -8 -8 -7 -8 2 0 7 10 17 23 22 24 10 24 10 -17 16 -36 6 -79 -20
-71 -45 3 -11 -3 -25 -17 -38 -37 -33 -44 -34 -74 -8 l-28 24 24 28 c14 15 28
30 31 33 3 3 12 16 19 30 9 18 10 25 1 28 -6 2 -9 8 -5 13 3 5 1 9 -5 9 -5 0
-12 -6 -15 -12 -5 -10 -7 -10 -12 0 -3 6 -15 12 -27 13 -21 0 -21 1 -2 9 18 7
17 8 -10 15 -39 8 -74 23 -57 24 20 1 14 21 -7 21 -11 0 -21 5 -23 12 -3 7
-18 12 -34 13 -23 0 -30 5 -32 24 -3 15 -14 27 -33 35 -19 7 -33 21 -39 41
l-10 30 5 -35 c4 -33 4 -33 -8 -12 -10 18 -15 20 -26 10 -10 -11 -11 -8 -6 15
10 39 1 33 -20 -12z m279 -366 c-4 -8 -2 -15 4 -15 6 0 12 6 15 13 2 7 8 8 13
3 5 -5 4 -11 -3 -13 -22 -8 -14 -26 9 -20 19 5 20 4 6 -9 -13 -13 -19 -14 -37
-3 -23 15 -34 36 -25 50 9 15 24 10 18 -6z m-24 -45 c0 -5 -7 -7 -15 -4 -8 4
-15 8 -15 10 0 2 7 4 15 4 8 0 15 -4 15 -10z m823 -51 c3 -12 3 -18 0 -15 -4
3 -12 1 -20 -6 -12 -10 -12 -7 -2 15 15 32 15 33 22 6z m-1130 -2494 c-3 -9
-8 -14 -10 -11 -3 3 -2 9 2 15 9 16 15 13 8 -4z"/>
<path d="M3671 5444 c0 -11 3 -14 6 -6 3 7 2 16 -1 19 -3 4 -6 -2 -5 -13z"/>
<path d="M3931 5116 c-10 -12 -8 -13 8 -9 12 3 21 1 21 -6 0 -6 -5 -11 -12
-11 -6 0 -9 -2 -7 -5 3 -2 15 -2 27 2 23 6 23 6 3 24 -24 23 -25 23 -40 5z"/>
<path d="M4710 5025 c-7 -9 -8 -15 -2 -15 5 0 12 7 16 15 3 8 4 15 2 15 -2 0
-9 -7 -16 -15z"/>
<path d="M5640 4860 c-6 -11 -8 -20 -6 -20 3 0 10 9 16 20 6 11 8 20 6 20 -3
0 -10 -9 -16 -20z"/>
<path d="M5681 4819 c-1 -4 6 -24 15 -45 15 -36 15 -37 -2 -24 -16 14 -16 13
-6 -7 17 -32 15 -36 -8 -13 -11 11 -25 17 -33 15 -7 -3 -57 -12 -112 -19 -55
-8 -84 -14 -65 -14 19 0 59 3 88 7 29 4 49 4 45 1 -13 -11 -193 -30 -305 -32
l-103 -2 85 -6 c77 -6 71 -6 -60 -8 -97 -1 -140 2 -130 8 9 6 10 10 3 10 -6 0
-15 -4 -18 -10 -3 -5 -15 -10 -26 -10 -11 0 -18 4 -14 9 3 5 1 12 -5 16 -6 4
-10 -5 -10 -19 0 -14 5 -26 10 -26 6 0 10 -5 10 -11 0 -8 -5 -8 -15 1 -8 7
-15 22 -15 34 0 11 -4 27 -8 34 -8 12 -14 2 -115 -218 -19 -41 -67 -145 -107
-230 -40 -85 -73 -160 -73 -165 0 -6 19 -53 43 -105 60 -131 510 -1108 553
-1200 19 -41 53 -114 75 -161 22 -47 44 -89 51 -93 6 -4 9 -2 5 7 -2 7 1 14 8
15 7 0 38 1 68 2 30 1 61 7 69 14 8 6 39 9 71 8 43 -3 61 0 73 13 15 14 37 16
151 13 102 -2 132 0 129 9 -3 7 -10 11 -16 10 -6 -1 -13 7 -14 18 -1 14 17 36
56 70 64 55 84 61 89 28 2 -13 10 -23 18 -23 17 0 19 -20 2 -21 -7 -1 -17 -2
-23 -4 -5 -1 -16 -3 -24 -3 -11 -2 -11 -5 0 -18 10 -13 10 -17 0 -24 -7 -4
-22 -5 -32 -3 -20 6 -26 -11 -9 -22 6 -4 8 -10 5 -14 -2 -5 20 -7 50 -6 30 2
55 -1 55 -6 0 -5 35 -9 79 -9 58 0 82 -4 91 -15 15 -18 42 -19 58 -3 8 8 12 9
12 1 0 -6 19 -14 43 -18 71 -10 137 -28 137 -37 0 -4 9 -8 21 -8 11 0 34 -9
49 -20 16 -11 32 -20 37 -19 26 4 45 -2 40 -14 -3 -8 -1 -20 5 -28 8 -12 9
-12 5 1 -2 8 3 20 12 26 17 13 50 -61 -354 824 -178 390 -304 665 -434 945
-21 44 -71 152 -111 240 -69 150 -101 210 -85 158 8 -27 -15 -32 -35 -8 -16
19 -40 19 -40 0 0 -9 6 -12 16 -8 13 5 15 2 9 -15 -4 -15 -2 -22 6 -22 10 0
10 -3 1 -12 -9 -9 -17 -6 -37 12 -32 30 -32 45 1 66 28 19 61 74 44 74 -6 0
-9 4 -6 8 3 5 -6 30 -19 58 -13 27 -24 46 -24 43z m-41 -98 c0 -6 -4 -12 -8
-15 -5 -3 -9 1 -9 9 0 8 4 15 9 15 4 0 8 -4 8 -9z m-651 -77 c-18 -22 -21 -11
-7 27 11 30 13 31 16 11 2 -13 -2 -30 -9 -38z m1214 -1821 c-5 -13 -2 -15 17
-10 21 5 22 5 7 -10 -14 -14 -17 -14 -33 1 -14 15 -15 19 -3 27 19 12 19 12
12 -8z m-64 -20 c-3 -20 2 -24 15 -14 12 10 13 8 9 -9 -4 -16 -2 -19 11 -14
12 5 15 2 10 -10 -8 -21 -19 -20 -49 6 -19 16 -22 24 -14 35 13 15 20 17 18 6z
m-721 -228 c-3 -3 -9 2 -12 12 -6 14 -5 15 5 6 7 -7 10 -15 7 -18z m1296 -31
c3 -8 2 -12 -4 -9 -6 3 -10 10 -10 16 0 14 7 11 14 -7z m-20 -10 c3 -8 2 -12
-4 -9 -6 3 -10 10 -10 16 0 14 7 11 14 -7z"/>
<path d="M5740 4660 c0 -5 5 -10 10 -10 6 0 10 5 10 10 0 6 -4 10 -10 10 -5 0
-10 -4 -10 -10z"/>
<path d="M6070 2725 c-8 -9 -8 -15 -2 -15 12 0 26 19 19 26 -2 2 -10 -2 -17
-11z"/>
<path d="M6025 2680 c-3 -5 -1 -10 4 -10 6 0 11 5 11 10 0 6 -2 10 -4 10 -3 0
-8 -4 -11 -10z"/>
<path d="M5442 2497 c8 -20 14 -24 20 -15 6 10 8 10 8 -1 0 -8 3 -12 6 -8 3 3
1 14 -5 24 -7 13 -10 14 -11 4 0 -11 -4 -9 -15 5 -14 18 -14 17 -3 -9z"/>
<path d="M6555 2510 c3 -5 8 -10 11 -10 2 0 4 5 4 10 0 6 -5 10 -11 10 -5 0
-7 -4 -4 -10z"/>
<path d="M3510 2420 c-8 -5 -12 -12 -9 -15 4 -3 12 1 19 10 14 17 11 19 -10 5z"/>
<path d="M6776 2405 c-9 -26 -7 -32 5 -12 6 10 9 21 6 23 -2 3 -7 -2 -11 -11z"/>
<path d="M3446 2362 c-3 -5 1 -9 9 -9 8 0 12 4 9 9 -3 4 -7 8 -9 8 -2 0 -6 -4
-9 -8z"/>
</g>
</svg>
